<svg viewBox="0 0 169 38" fill="none" xmlns="http://www.w3.org/2000/svg">
  <g id="root">
    <path d="M0 21.5036V15.6296C0 12.5678 1.70143 10.9206 4.55194 10.9206C7.31615 10.9206 8.89182 12.5678 8.99045 15.5709H6.37666C6.31255 14.073 5.73801 13.4391 4.54701 13.4391C3.35601 13.4391 2.69763 14.0926 2.69763 15.6419V21.5159C2.69763 23.0578 3.3782 23.7186 4.59139 23.7186C5.8465 23.7186 6.52708 23.0652 6.52708 21.5648V20.1281H4.46317V17.8275H9.07922V21.5453C9.01511 24.5435 7.35313 26.2102 4.54947 26.2102C1.74581 26.2102 0 24.5435 0 21.5036Z" fill="white"/>
    <path d="M17.3437 23.2782H13.857L13.2603 25.9705H10.5479L14.2072 11.1924H17.0083L20.6627 25.9509H17.9503L17.3437 23.2782ZM16.8135 20.8111L16.2168 18.0675C16.0048 17.0542 15.7705 15.429 15.6201 14.4353H15.556C15.4277 15.4266 15.1935 17.0542 14.9814 18.0675L14.3872 20.8111H16.8135Z" fill="white"/>
    <path d="M34.9605 11.1802V25.9509H32.3886V21.3349C32.4528 19.6045 32.5169 17.9084 32.6007 16.2466L32.4947 16.205C32.0681 17.4287 31.5798 18.7602 31.1113 20.0892L30.1127 22.708H27.5161L26.5175 20.0892C26.049 18.7602 25.5804 17.4287 25.1341 16.205L25.0281 16.2466C25.1119 17.9133 25.176 19.6021 25.2402 21.3349V25.9509H22.6855V11.1802H25.324L27.7479 16.9637C28.066 17.7444 28.5764 19.0955 28.7688 19.7073H28.8502C29.0425 19.0955 29.5726 17.7493 29.8932 16.9637L32.3023 11.1802H34.9605Z" fill="white"/>
    <path d="M43.7891 23.2782H40.3024L39.7007 25.9509H36.9883L40.6476 11.1729H43.4488L47.0982 25.9509H44.3858L43.7891 23.2782ZM43.2589 20.8112L42.6597 18.0626C42.4477 17.0493 42.2134 15.4242 42.063 14.4305H41.9989C41.8706 15.4217 41.6364 17.0493 41.4243 18.0626L40.8325 20.8112H43.2589Z" fill="white"/>
    <path d="M99.5228 22.9188H95.2051L94.4185 26.1274H92.5889L96.4134 11.3494H98.3071L102.137 26.1274H100.309L99.5228 22.9188ZM99.1406 21.3132L97.9274 16.3105C97.6932 15.3609 97.4811 14.1077 97.3948 13.5448H97.3307C97.2468 14.1151 97.0323 15.3609 96.7981 16.3105L95.5849 21.3132H99.1406Z" fill="white"/>
    <path d="M103.713 21.8637V15.6128C103.713 12.7003 105.372 11.0727 107.86 11.0727C110.413 11.0727 111.986 12.6342 112.136 15.4782H110.41C110.282 13.5789 109.389 12.6905 107.836 12.6905C106.411 12.6905 105.454 13.6181 105.454 15.603V21.8637C105.454 23.8217 106.452 24.7567 107.9 24.7567C109.473 24.7567 110.346 23.8487 110.516 21.991H112.242C112.072 24.7983 110.499 26.3818 107.902 26.3818C105.392 26.3818 103.713 24.7763 103.713 21.8637Z" fill="white"/>
    <path d="M120.132 22.9188H115.814L115.028 26.1274H113.198L117.028 11.3494H118.921L122.751 26.1274H120.921L120.132 22.9188ZM119.75 21.3132L118.537 16.3105C118.303 15.3609 118.09 14.1077 118.004 13.5448H117.94C117.856 14.1151 117.642 15.3609 117.407 16.3105L116.194 21.3132H119.75Z" fill="white"/>
    <path d="M125.013 11.3496H128.544C131.394 11.3496 133.054 12.9968 133.054 15.8261V21.6536C133.054 24.483 131.375 26.1301 128.566 26.1301H125.013V11.3496ZM128.573 24.483C130.317 24.483 131.318 23.504 131.318 21.59V15.8677C131.318 13.9685 130.332 12.9968 128.573 12.9968H126.766V24.483H128.573Z" fill="white"/>
    <path d="M143.652 24.5023V26.1274H136.291V11.3494H143.417V12.955H138.037V17.8328H143.035V19.4164H138.037V24.5047L143.652 24.5023Z" fill="white"/>
    <path d="M157.72 11.3494V26.1274H155.994V19.3429C156.016 17.7374 156.058 16.3031 156.142 14.8665L156.056 14.8444C155.651 15.9629 155.099 17.336 154.576 18.7286L153.023 22.7181H151.296L149.723 18.7286C149.213 17.336 148.638 15.9629 148.244 14.8444L148.138 14.8665C148.224 16.3031 148.286 17.7374 148.286 19.3429V26.1201H146.56V11.3494H148.389L150.964 17.5342C151.326 18.4202 151.856 19.8765 152.09 20.6377H152.177C152.423 19.879 152.963 18.4202 153.326 17.5342L155.9 11.3494H157.72Z" fill="white"/>
    <path d="M163.563 21.056L159.906 11.3492H161.736L163.627 16.6505C163.874 17.348 164.18 18.1924 164.436 18.9511H164.468C164.715 18.1899 165.02 17.326 165.277 16.6088L167.171 11.3516H169L165.309 21.056V26.1223H163.566L163.563 21.056Z" fill="white"/>
    <path d="M69.8839 37.2854C66.1691 37.2854 62.5377 36.192 59.449 34.1435C56.3602 32.0951 53.9529 29.1835 52.5313 25.777C51.1097 22.3705 50.7377 18.6221 51.4625 15.0057C52.1872 11.3894 53.976 8.0676 56.6028 5.46038C59.2295 2.85315 62.5762 1.07761 66.2196 0.358282C69.863 -0.361051 73.6395 0.00813694 77.0715 1.41915C80.5036 2.83017 83.437 5.21965 85.5008 8.28542C87.5646 11.3512 88.6662 14.9556 88.6662 18.6427C88.661 23.5855 86.6804 28.3243 83.1592 31.8194C79.638 35.3144 74.8636 37.2802 69.8839 37.2854ZM69.8839 3.67378C66.9006 3.67378 63.9844 4.55183 61.5039 6.19691C59.0234 7.84199 57.0901 10.1802 55.9485 12.9159C54.8069 15.6515 54.5082 18.6618 55.0902 21.566C55.6722 24.4701 57.1087 27.1378 59.2182 29.2316C61.3277 31.3254 64.0153 32.7512 66.9412 33.3289C69.8671 33.9066 72.8999 33.6101 75.6561 32.477C78.4123 31.3438 80.768 29.4249 82.4254 26.9628C84.0828 24.5008 84.9674 21.6062 84.9674 18.6452C84.9615 14.6768 83.3703 10.8726 80.5428 8.06697C77.7152 5.26132 73.882 3.6832 69.8839 3.67867V3.67378Z" fill="#68DE5A"/>
    <path d="M88.9935 19C88.9935 29.4934 80.4556 38 69.9235 38C59.3914 38 50.8535 29.4934 50.8535 19C50.8535 8.50666 59.3914 9.52028e-05 69.9235 9.52028e-05C80.4556 9.52028e-05 88.9935 8.50666 88.9935 19Z" fill="#68DE5A"/>
    <path d="M64.3598 21.384H61.0137V14.1468L64.3598 13.5496V21.384Z" fill="black"/>
    <path d="M69.1518 21.384H65.8057V12.5657L69.1518 11.9366V21.384Z" fill="black"/>
    <path d="M73.9594 11.129H70.6133V21.384H73.9594V11.129Z" fill="black"/>
    <path d="M78.7622 21.384H75.416V12.5583L78.7622 13.1555V21.384Z" fill="black"/>
    <path d="M78.758 22.8377H70.6133V26.1589H78.758V22.8377Z" fill="black"/>
  </g>
</svg>
