<svg id="Layer_1" data-name="Layer 1" xmlns="http://www.w3.org/2000/svg" viewBox="0 0 1394.45 212">
  <path d="M1420,196l-13.81-31.14L1402,101.15l-3.3,47-3.56-8.05,3.3,11.78-2.61,38.78-2.73-.49c0-3.69,0-8.64-.2-14.41a322.93,322.93,0,0,0-5.27-47.13c-1.22-6.6-2.64-12.93-4.19-19.1.43-2.34.7-3.73.7-3.73s-.37,1-1,2.81l-1.19-4.55c-1-3.9-2.14-7.62-3.29-11.12a83.37,83.37,0,0,0-3.69-9.89A37.86,37.86,0,0,0,1366,70.31a23.7,23.7,0,0,0-3.46-2.6l-1.32-.79,1.22.92a21.91,21.91,0,0,1,3.29,2.87,36.59,36.59,0,0,1,7.45,13.19,84.56,84.56,0,0,1,2.67,9.9c.76,3.56,1.52,7.35,2.14,11.24s1.45,8.91,2,13.53a4.13,4.13,0,0,1-.37,1.18c-2.57,8.31-5.66,19.53-8.33,30.91-1.75,7.29-3.3,14.61-4.55,21.24-.3-6.6-.6-13.79-.92-21.61-.43-8.7-1-18.07-2.21-27.4-.63-4.69-1.42-9.3-2.44-13.86a134.59,134.59,0,0,0-3.59-13.19c-1-3.07-2.11-6-3.3-8.77,0-8.35-.23-16.16-.39-22.92-.4-14.81-.83-24.67-.83-24.67s-.36,9.89-1.18,24.63c-.23,4.65-.56,9.9-.93,15.31-.92-2-1.84-3.83-2.77-5.61a139.48,139.48,0,0,0-8.79-14.35c-1.16-1.68-2.08-2.93-2.74-3.79l-1-1.35.86,1.42c.59.92,1.42,2.27,2.4,4a136.91,136.91,0,0,1,7.81,15c1.42,3.3,2.84,7.12,4.16,11.14-.73,10.2-1.58,21.28-2.57,32.33-1.78,19.78-4,39.18-5.84,53.82-.56,4.35-1.08,8.28-1.51,11.68l-8.5-.73c0-1.22.19-2.41.26-3.6.43-6.33.49-12.66.39-17.38s-.29-7.85-.29-7.85-.4,3.11-1.19,7.72-2.07,10.75-3.62,16.76c-.33,1.32-.7,2.6-1.06,3.89l-4.28-.33,1.38-3c1.29-2.64,2.31-5.54,3.5-8.51a77,77,0,0,0,2.93-9.3c.82-3.23,1.55-6.6,2.31-9.9a68.58,68.58,0,0,0,1.38-9.89c.26-3.3.49-6.6.69-9.6s0-6.13,0-9a54,54,0,0,0-.69-8,61.27,61.27,0,0,0-1-6.59c-.33-2-.66-3.7-1-5.08-.66-2.77-1.06-4.36-1.06-4.36s.2,1.62.53,4.46c.2,1.41.3,3.29.4,5.11s.2,4.19.16,6.6,0,5-.29,7.81-.6,5.67-1,8.64a70.69,70.69,0,0,1-1.75,9.1c-.79,3.07-1.61,6.11-2.47,9.17a67.16,67.16,0,0,1-3.29,8.88c-.27.69-.56,1.31-.86,2,1-4.45,2-9,2.8-13.65a219.44,219.44,0,0,0,3.07-36.28c0-4.95-.17-9.07-.3-11.94s-.3-4.52-.3-4.52,0,1.65-.26,4.52-.53,7-1.12,11.84a217,217,0,0,1-7.32,35c-.23.79-.46,1.58-.72,2.37v-1.05c.2-6.6,0-10.82,0-10.82s-.43,4.32-1.52,10.68c-.66,3.93-1.58,8.61-2.8,13.56-.4,1-.79,2.14-1.22,3.3-.62,1.55-1.25,3-1.88,4.48,0-8.51,0-18.1.56-27.77a388.25,388.25,0,0,1,4.25-38.78c.86-5.28,1.68-9.66,2.31-12.73s1-4.78,1-4.78l-1.49,4.65c-1,3-2.27,7.25-3.72,12.43a375.7,375.7,0,0,0-13.28,78.06V181c-3.53-.23-7.09-.43-10.78-.6.83-4.32,1.68-8.9,2.47-13.49,3.3-19.12,5.44-38.35,5.44-38.35s-4.48,18.83-10.11,37.23c-.86,2.91-1.75,5.81-2.67,8.61.72-5.21,1.41-10.85,2.07-16.49,2.37-20.51,3.53-41,3.53-41s-4.32,20.09-9.89,39.81c-1.74,6.24-3.52,12.43-5.2,18l-.53-10.85,4.64-26.62-5.33,15.9-3.5-72.23c1.58-1.81,3.13-3.49,4.58-5,2-2.21,3.86-4.12,5.41-5.64l4.81-4.78-5.17,4.38c-1.69,1.39-3.66,3.3-5.87,5.21l-3.89,3.53L1270,64.94l-.72,15L1267.17,82c-2.7,2.58-5.53,5.48-8.46,8.58s-5.94,6.59-9.07,9.89l-1.51,1.82c.26-1.55.56-3.14.82-4.65.33-2.21.69-4.36,1-6.6.19-.43.39-.92.59-1.32.63-1.19,1.22-2.31,1.81-3.3l1.85-2.8c.62-.83,1.25-1.55,1.78-2.24a32,32,0,0,1,2.73-3l1-1-1.12.92a29.82,29.82,0,0,0-3,2.7c-.62.63-1.32,1.29-2,2.08l-2.18,2.67-1,1.42c0-.76.23-1.58.29-2.34.37-4.06.7-7.88.7-11.48V68.3c0-1.78-.17-3.3-.23-4.58a61.37,61.37,0,0,0-.63-7.42c-.53-4.09-.86-6.43-.86-6.43s0,2.37.33,6.59a60.74,60.74,0,0,1,0,7.39,45.08,45.08,0,0,1-.16,4.55c-.17,1.62-.33,3.3-.53,5-.26,3.46-.92,7.22-1.61,11.14s-1.72,8.08-2.74,12.3a8.32,8.32,0,0,1-.56,2.12c-.2.69-.79,2-1.12,3.29a72.67,72.67,0,0,0-2.11,8.08,4.4,4.4,0,0,1-.33,1.09,5.19,5.19,0,0,0-.36.46c-3.1,3.83-6,7.92-8.93,12s-5.7,8.24-8.27,12.46-5.11,8.38-7.52,12.44c-1.91,3.56-3.79,7-5.5,10.29l17.1-89-31.7,107.19h-8.24l14.9-31.2s-9.62,14.57-19.21,29.18l-1.32,2h-6.59c-.56-6.16-1.12-13-1.32-20.21v-5.68c2.57-4.45,5.3-9,8.14-13.49,4.45-7.19,9.06-14.38,13.18-21.33a154.13,154.13,0,0,0,9.89-19.79c1.22-3,2.17-5.74,2.93-8.22s1.35-4.68,1.75-6.59.66-3.3.85-4.26l.27-1.48-.4,1.45c-.3,1-.59,2.38-1.25,4.12s-1.32,3.89-2.31,6.27-2.21,5-3.66,7.78a151.16,151.16,0,0,1-11.4,18.27c-4.55,6.6-9.88,13.2-14.93,19.79l-2,2.71c.26-2.38.63-4.78,1.09-7.13a87.73,87.73,0,0,1,3.72-13.39c1.55-4.22,3.46-8.44,5.34-12.46,3.63-7.92,7.45-15.57,10.22-22.17a80.72,80.72,0,0,0,3.09-9.4,34.45,34.45,0,0,0,.93-4,30.82,30.82,0,0,0,.59-3.3,37.35,37.35,0,0,0,.43-4.85V58.05l-.2,1.71a45.58,45.58,0,0,1-.86,4.78,24.86,24.86,0,0,1-.82,3.3c-.36,1.22-.73,2.51-1.25,3.86a78,78,0,0,1-3.79,8.94c-3.13,6.59-7.52,13.52-12,21.34-2.27,3.92-4.55,8-6.59,12.46a91.14,91.14,0,0,0-5.08,13.79,119.42,119.42,0,0,0-3.79,20.81c-1.28,1.85-2.53,3.73-3.75,5.61a117.2,117.2,0,0,0-6,10.25c-1.78,3.37-3.1,6.6-4.55,9.34-.49.95-.92,1.88-1.38,2.77H1140l-.2-.73c-.66-2.08-1.12-4.35-1.61-6.59,1.54-3,3.29-6,4.77-8.88,1.19-.69,2.24-1.28,3.13-1.74l2.67-1.39-2.83,1-2.24.86c1.81-3.3,3.59-6.1,5.21-8.61,3.62-5.67,6.29-9.33,6.29-9.33s-3,3.13-7.18,8.11c.23-.52.49-1,.72-1.61,1.81-4.06,3.53-8.08,5-12.24s2.86-8.31,4-12.47,2.18-8.27,3-12.27,1.62-8.77,2.18-12.82c5.76-10.46,9.55-17.39,9.55-17.39l-9.06,13.36c.2-1.82.36-3.57.5-5.24.26-3.3.42-6.24.49-8.87s0-5,0-6.86V67.38s0,2.14-.4,5.94c-.19,1.88-.33,4.15-.69,6.76s-.72,5.54-1.28,8.7-1.35,7.19-2.31,11.09l-24,35.38v-2.7c.26-4.09.49-8.18,1-12.2s1-8,1.48-11.81c.56-3.3,1.06-6.6,1.62-9.6.79-1.94,1.28-3.1,1.28-3.1l-1.09,2v-.27c.63-3.49,1.26-6.79,1.92-9.89,2.47-12.2,4.38-20.28,4.38-20.28s-2.67,7.85-6.33,19.79c-.92,3-1.88,6.23-2.83,9.66s-1.91,7.12-2.94,10.88l-.29,1.19-.93,1.78-1.54,3-2.15.49c-4.12,1.06-9.88,2.68-16.9,5-3,1-6.16,2.24-9.49,3.56v-1c0-5.7,0-11.44.23-17.21,0-2.87.29-5.74.43-8.61s.49-5.71.72-8.51.69-5.61,1-8.38.73-5.47,1.26-8.11A155.39,155.39,0,0,1,1110,55.64c.56-2.41,1.35-4.68,2-6.93a66.81,66.81,0,0,1,2.07-6.43c1.49-4.09,2.77-7.85,4.32-11s2.6-6.07,3.86-8.28l3.79-7-4.25,6.79c-1.45,2.11-2.77,4.91-4.49,8s-3.29,6.79-5.1,10.82c-1,2-1.68,4.12-2.54,6.36s-1.75,4.49-2.47,6.89c-1.52,4.82-3.1,9.9-4.32,15.24-.46,1.62-.76,3.3-1.12,5l-2.27,3.5c-1,1.48-2.15,3.3-3.3,5.44-1,1.61-2.08,3.46-3.3,5.41h-3.29a89.06,89.06,0,0,0-9.66.53,59.31,59.31,0,0,0-5.93.75,64.68,64.68,0,0,0-6.59,1.22c-1.48.3-3,.7-4.51,1.09,5.7-6.86,9.36-11,9.36-11s-4.65,4.49-11.8,11.71l-2.05.6c11.31-26.72,20.77-47.89,20.77-47.89s-12.39,21.83-26.47,49.4a159.7,159.7,0,0,0-15.29,6.4c-5.17,2.61-10.48,5.44-15.62,8.71s-10.31,6.59-15.29,10.45c-2.5,1.85-4.94,3.76-7.28,5.68-1.78,1.41-3.56,2.93-5.3,4.42.72-2.84,1.42-5.68,2-8.55,1-5,1.88-9.89,2.5-14.9s1.15-9.9,1.42-14.52a31.64,31.64,0,0,1,.16-3.92c3-4,5.93-7.92,8.9-11.64,7.28-9.14,14.37-17.45,20.53-24.51l15.09-16.92,5.77-6.36-6.16,6L1027.93,52c-6.59,6.6-14.27,14.51-22.15,23.09-1.88,2.07-3.79,4.22-5.67,6.4V79.68c0-4.32-.23-8.38-.46-12.14-.52-7.52-1.38-13.72-2.07-18l-.33-1.88c2.5-3.72,4.91-7.35,7.28-10.62,5.87-8.37,11-15.17,14.63-19.78l5.74-7.42-6.17,7.05c-3.92,4.52-9.45,11-15.78,19.07-2.08,2.54-4.19,5.27-6.36,8.14l-.23-1.22v1.32c-1.18,1.58-2.4,3.3-3.69,4.82-3.46,4.75-7.22,9.69-10.84,15s-7.41,10.72-11.14,16.49c-3.29,5.11-6.59,10.36-9.88,15.67-3.63,2.4-7.29,5.24-11,8.21-1.81,1.55-3.73,3.07-5.57,4.68s-3.63,3.3-5.5,5l-5.38,5.37c-1.74,1.85-3.29,3.76-5.17,5.64-3.29,3.86-6.59,7.82-9.62,11.91-1.55,2-2.93,4.09-4.35,6.13s-2.77,4.13-4,6.2c-2.57,4-4.85,8.32-7,12.21l-1.51,3.29-6.92,4q2.9-4.43,6.23-9.2c2.4-3.53,5-7.19,7.41-11.12s4.52-7.95,6.79-11.94c6.59-11.41,12.85-23.08,17.83-33.27,1.94-1.19,3.79-2.28,5.6-3.3a183,183,0,0,1,16.48-8.41l6.39-2.84-6.59,2.31c-4.19,1.58-10.15,3.89-17.1,7.16l-2.94,1.45c1.26-2.71,2.44-5.35,3.46-7.82,2.64-6.33,4.58-11.71,5.77-15.53s1.78-6,1.78-6-.79,2.15-2.31,5.84S939.71,85,936.55,91c-1.78,3.3-3.85,7.09-6.13,10.92l-3.66,1.88c-3.85,2.11-7.94,4.39-12,7S906.5,116,902.38,119c-2.08,1.42-4.12,3-6.16,4.55s-4.06,3.3-6,4.81-4,3.3-5.89,5.05-3.86,3.3-5.67,5.18-3.69,3.49-5.44,5.31-3.49,3.56-5.14,5.41c-3.3,3.66-6.23,7-9.23,10.58-1.48,1.85-2.86,3.66-4.22,5.51s-3.55,4.39-5.1,6.6a70.45,70.45,0,0,0-6.83,12.46l-11.89.53c.69-1.25,1.45-2.51,2.24-3.82a219,219,0,0,1,12.36-18.57l1.64-2.21c4.88-4,10.09-7.75,14.9-11.41a129.35,129.35,0,0,0,13.18-11.45,47,47,0,0,1,9.13-8.05,20.61,20.61,0,0,1,3.1-1.41l1.18-.37-1.22.27a20,20,0,0,0-3.29,1.15,48.67,48.67,0,0,0-9.89,7.29,116.76,116.76,0,0,1-14,9.9L856,148.91c1.81-2.15,3.66-4.26,5.53-6.37A231.89,231.89,0,0,1,879.8,124.4,102,102,0,0,1,898,111.21a67.75,67.75,0,0,1,8.18-3.73,62.61,62.61,0,0,1,6.59-2,43.42,43.42,0,0,1,4.41-.79l1.59-.23h-1.59a36.31,36.31,0,0,0-4.51.43,60.14,60.14,0,0,0-6.89,1.42,70.24,70.24,0,0,0-8.67,3.06A103.91,103.91,0,0,0,877.33,121a232.51,232.51,0,0,0-20.26,16.82,261.55,261.55,0,0,0-18.49,18.89c-5.6,6.37-10.51,12.6-14.53,18.08-2,2.77-3.79,5.31-5.34,7.58-.69,1-1.32,2-1.91,2.84l-8.08.36a38.84,38.84,0,0,1,1-7.88,47.25,47.25,0,0,1,2.11-6.89,56.3,56.3,0,0,1,3.3-6.76,71,71,0,0,1,4.22-6.6c1.55-2,3.29-4,4.74-5.84a122.42,122.42,0,0,1,9.56-9.5l4.51-3.92c4.06-1.58,7.55-2.8,10.15-3.66l4.95-1.58-5.08,1.18c-2,.5-4.61,1.19-7.55,2l.33-.26,2.84-2.31-3.07,2-1.61,1.06L835,137.89a193.78,193.78,0,0,0-18.29,6.9c-2.27,1-4.61,2-6.95,3.29l1.62-3.49c.36-.73.79-1.45,1.15-2.18,1.65-2.14,3.29-4.25,5-6.27,4.12-4.88,8.24-9.26,11.93-12.86s6.88-6.59,9.16-8.44l3.62-3-3.89,2.7c-2.43,1.78-5.89,4.35-9.88,7.65-2.93,2.41-6.13,5.24-9.49,8.38,2.83-4.79,5.86-9.6,9.06-14.28s6.59-9.2,9.89-13.66,6.82-8.67,10.25-12.73c6.82-8.14,13.47-15.53,19.27-21.8C879,55.57,887,47.43,887,47.43S878.49,55,866,66.65c-6.23,5.87-13.45,12.8-20.9,20.52q-5.57,5.77-11.23,12.13c-3.69,4.23-7.45,8.71-11,13.2a245.89,245.89,0,0,0-19.21,28c-3,5.08-5.57,10.13-7.88,15a134.9,134.9,0,0,0-18,12.4,103.44,103.44,0,0,0-7.77,7.33A57.78,57.78,0,0,0,764,183a41.6,41.6,0,0,0-2.67,4.91h-2.8c0-1.45-.23-3.07-.33-4.88v-7.82c.76-1.42,1.58-2.87,2.37-4.35,1.78-2.87,3.5-5.9,5.57-8.77s4.25-5.77,6.43-8.64a75.66,75.66,0,0,1,7.22-8.05c2.53-2.51,5.07-4.95,7.57-7.29a72.82,72.82,0,0,1,7.65-6.17c2.57-1.81,4.91-3.63,7.25-5.08s4.45-2.8,6.39-3.89,3.63-2.08,5.11-2.74l4.52-2.24-4.72,1.88a57.77,57.77,0,0,0-5.3,2.31c-2.08.92-4.35,2-6.76,3.3s-5.07,2.83-7.77,4.52-5.41,3.66-8.28,5.67a79.32,79.32,0,0,0-8.33,6.83c-2.71,2.5-5.44,5-8.11,7.65a80.18,80.18,0,0,0-7.38,8.41c-.76.86-1.42,1.75-2.08,2.64.5-3.3,1.09-6.6,1.88-9.9.92-4.12,2.14-8.31,3.46-12.56s3-8.54,4.68-12.7,3.69-8.38,5.67-12.47,4-8,6.16-11.77c4.19-7.52,8.44-14.45,12.13-20.32C800.94,69.75,806.09,62,806.09,62s-5.77,7.22-14.24,18.3c-4.22,5.54-9,12.07-13.94,19.33-2.44,3.63-4.88,7.45-7.25,11.41s-4.71,8.11-6.85,12.17-4.19,8.51-6,12.79-3.3,8.65-4.82,12.9a140.76,140.76,0,0,0-5.5,24c-.36,2.93-.59,5.64-.76,8.14-.49,1-1,1.95-1.45,2.91-.82,1.58-1.51,3.1-2.17,4.58h-2.31v-2.87c0-1.32.2-2.77.33-4.32s.26-3.3.4-5,.52-3.59.79-5.5.52-4,.92-6l1.35-6.4a67.52,67.52,0,0,1,1.65-6.59c.62-2.28,1.22-4.62,1.91-7,1.61-4.65,3.1-9.53,5.17-14.28s4.25-9.53,6.59-14.32a118.83,118.83,0,0,1,7.88-13.68c2.9-4.36,5.77-8.58,8.67-12.64,1.48-2,3.09-3.85,4.58-5.73s3-3.7,4.58-5.35L790.1,74c1.49-1.58,3-3,4.45-4.39s2.8-2.74,4.15-4l4-3.29c2.47-2.15,4.68-4,6.59-5.31l5.93-4.42-6.26,4c-2,1.23-4.35,2.87-7,4.85l-4.21,3.07c-1.45,1.15-2.94,2.41-4.49,3.69s-3.29,2.61-4.84,4.09l-4.94,4.65c-1.72,1.55-3.3,3.3-5.05,5.08s-3.29,3.56-5.1,5.48c-3.3,3.92-6.76,7.88-9.89,12.27s-6.13,8.9-9.16,13.49a107.85,107.85,0,0,0-7.81,14.34c-2.27,4.92-4.48,9.73-6.59,14.48-1,2.41-1.75,4.82-2.61,7.16s-1.64,4.65-2.24,6.92-1.28,4.52-1.91,6.6-1,4.29-1.45,6.3-.92,4-1.28,5.84-.53,3.3-.76,4.94q-2.67-3.56-5.8-7.32c-2.08-2.5-5.24-6.1-8.17-9.17l-1.16-1.18a410,410,0,0,1-5.8-45.78,140.21,140.21,0,0,1,1.52-29,100.56,100.56,0,0,1,7-24.41l2.34-4.85c.83-1.48,1.65-2.9,2.41-4.22a77.31,77.31,0,0,1,4.48-6.6c1.28-1.78,2.54-3,3.29-3.92L731,42l-1.28,1.25a49.71,49.71,0,0,0-3.6,3.66,73.64,73.64,0,0,0-5.07,6.2l-2.77,4.09L715.46,62a104.61,104.61,0,0,0-9.26,24.47,151.32,151.32,0,0,0-3.92,29.88c-.3,10.26.2,20.48.86,30,0,1.78.29,3.56.43,5.31l-2.38-2a55,55,0,0,0-5.27-4.26c-2-1.32-3.56-2.77-5.44-4.06l-5.57-3.72a125.72,125.72,0,0,0-11.37-6.43c-3.72-2-7.54-3.47-11.1-4.95-1.78-.69-3.63-1.22-5.34-1.81a44.13,44.13,0,0,0-5-1.49,74,74,0,0,0-9-1.88l-4.05-.62h-.23c-3-2.15-6.06-3.93-8.83-5.64a58.4,58.4,0,0,0-7.71-4.29c-2.37-1-4.35-2.28-6.1-3L610.8,105l5.21,2.81c1.64.85,3.56,2.11,5.83,3.29s4.65,3,7.35,4.79c1.81,1.32,3.75,2.7,5.7,4.19l-4.91-.3,5.44.69,2.07,1.59c2.9,2.24,5.84,4.78,8.83,7.41s5.94,5.55,8.8,8.61c1.49,1.49,2.9,3,4.29,4.65l4.12,4.85c2.7,3.3,5.2,6.6,7.64,9.9a110.21,110.21,0,0,1,6.59,10.25c2,3.4,3.89,6.76,5.47,9.9l2.28,4.68,1.41,3.3-9.19-.46-.23-.3c-1.85-2.44-3.53-4.82-5.7-7.49s-4.42-5.41-6.86-8.14l-2.63-2.87c-1.35-2.34-2.8-4.69-4.29-7-1.91-2.87-3.85-5.74-6-8.54a88.54,88.54,0,0,0-14-15,57.15,57.15,0,0,0-15.26-9.27l-1.42-.5c-.63-.72-1.22-1.41-1.88-2.11a262,262,0,0,0-36.25-32.35c-1.38-1-2.8-2-4.18-3-.46-3.1-1-6.17-1.42-9.17-1-5-1.81-9.89-3-14.38s-2.15-8.83-3.3-12.73-2.21-7.45-3.3-10.58-1.94-5.87-2.83-8c-1.65-4.45-2.6-7-2.6-7l2.11,7.12c.69,2.25,1.41,5,2.17,8.22s1.71,6.59,2.47,10.75,1.62,8.24,2.31,12.79S573,75.06,573.63,80c.16,1.65.29,3.3.43,5.08-3.3-2.21-6.4-4.32-9.63-6.36l-2.2-2.18c-2.21-2-4.45-4-6.6-5.87-1.38-1.25-2.76-2.44-4.15-3.59-2.4-4.36-4.84-8.61-7.25-12.73-1.65-2.74-3.29-5.38-5-8s-3.29-5.14-5-7.52l-4.64-6.56C528,30.08,526.27,28,524.76,26l-4.45-5.81L516.09,15c-2.64-3.3-4.94-6-7-8.11L502.84,0l5.84,7.26c1.91,2.27,4.05,5.17,6.59,8.54l3.88,5.27c1.32,1.92,2.67,4,4.09,6s2.93,4.29,4.38,6.6L532,40.93c1.58,2.47,3,5.08,4.51,7.75s3,5.34,4.52,8.15c.56,1.15,1.19,2.34,1.78,3.52-1.88-1.45-3.79-2.77-5.57-4.12l-5.57-4-4.15-2.74v-.19l-.73-.47c-3.29-2.17-6.06-4-8.5-5.34l-7.55-4.45L518,44c2.34,1.49,5.05,3.5,8.11,5.84l1.35,1v1.59a34.9,34.9,0,0,0,.17,3.53,7.66,7.66,0,0,0,.23,2.24c-7.85-4-15.36-7.55-22.18-10.69C496.81,43.4,489.07,40,483,37.4L480,33.51l2.34,3.63-3.73-1.59-10.31-4.38,10.08,4.88,4.75,2.31.82,1.32a74.8,74.8,0,0,1,4.22,7.25c.79,1.42,1.58,2.94,2.47,4.52s1.55,3.3,2.41,5.21c1.74,3.56,3.29,7.59,4.87,11.84.86,2.08,1.52,4.35,2.25,6.6s1.54,4.58,2.14,7c.36,1.42.72,2.9,1.12,4.35-3.66-2.83-7.38-5.64-11.07-8.24-6.17-4.22-12.33-8.15-18.46-11.71a331.3,331.3,0,0,0-34.47-17.18c-4.18-1.78-8.11-3.3-11.73-4.82V39.41l-.33,4.92c-5.11-2-9.59-3.66-13.18-4.95-6.16-2.21-9.89-3.3-9.89-3.3s3.5,1.35,9.53,3.89c3.59,1.49,8.14,3.3,13.18,5.81v.49c-.27,4.32-.63,10.52-.89,17.94-.36,9.14-.6,20.19-.6,32-1.94-2-3.92-3.89-5.83-5.67a101.29,101.29,0,0,0-9.88-8.15,100.73,100.73,0,0,0-8.9-6L397.09,74c-1.25-.59-2.37-1.19-3.29-1.71a36.77,36.77,0,0,0-3.5-1.59l-5.1-4.58c-2.28-2-4.52-4-6.79-5.81L371.82,55c-2.15-1.72-4.29-3.3-6.3-4.75l-3.95-3c.59-1.65,1.09-3,1.48-3.89s.69-1.75.69-1.75l-.82,1.68c-.46.89-1.06,2.15-1.75,3.7l-1.48-1.12-5.4-3.7c-3.3-2.34-6.33-4.35-8.87-5.87l-4.15-2.57-1.75-6s.43,2,1.22,5.67l-3.29-2,3.29,2.31,4.91,22.36c1.62,7.35,3.46,15.83,5.47,24.87a80.19,80.19,0,0,0-.46,12,63.84,63.84,0,0,0,2.44,15.41,80.15,80.15,0,0,0,2.47,7.65q1.49,3.72,3.3,7.42c2.7,5.67,5.73,11.08,8.79,16.29,0,3.1-.26,6.27-.42,9.4-.47,9.1-1.09,18.17-1.68,25.92l-14.74-.23v-1.19c-.26-2.11-.52-4.35-.85-6.59a139.65,139.65,0,0,0-3.3-14.61c-.36-1.29-.82-2.58-1.22-3.9s0-1.91,0-2.9c0-5,0-10.32-.29-15.76a140.63,140.63,0,0,0-2.41-16.2,193.52,193.52,0,0,0-8.2-28.1v-.89c.42-13.55.95-22.59.95-22.59s-1.12,7.59-2.57,19.33a217.36,217.36,0,0,0-10.51-23.09c-3.43-6.59-7-12.93-9.39-16.92l-3.83-6.26,3.3,6.59c2.08,4.16,4.94,10.16,8.07,17.52a242.06,242.06,0,0,1,11.21,32.42c-.53,5-1,10.48-1.32,16.29v3.53l-3.13-6.6a275.79,275.79,0,0,1-12.82-32.09,135.35,135.35,0,0,1-4-15.37,103.05,103.05,0,0,1-1.77-14.11V37c0-2,.23-3.89.33-5.7s.49-3.3.69-5a38.27,38.27,0,0,1,.89-4.19,49.94,49.94,0,0,1,1.64-5.77l.66-2s-.29.7-.79,2a47.87,47.87,0,0,0-2,5.71c-.36,1.25-.86,2.6-1.19,4.15s-.66,3.3-1,5-.49,3.72-.76,5.77-.26,4.19-.33,6.43a104,104,0,0,0,.89,14.54,135.69,135.69,0,0,0,3,16,273.36,273.36,0,0,0,10.84,33.48c3.3,8.34,6.39,16.65,9.16,24.66V135c.4,4.68.93,9.24,1.68,13.75s1.72,8.94,2.87,13.19a3.74,3.74,0,0,0,.17.57c-.2,3.76-.3,7.45-.17,10.95v1.74h-8v-8.6c0-3.7-.36-7.62-.56-11.65s-.66-8.18-1.25-12.36-1.19-8.45-1.85-12.67S322,121.47,321,117.38s-2-8.08-3-11.94-2.21-7.55-3.3-11-2.3-6.59-3.49-9.66-2.24-5.71-3.29-8.05-1.92-4.45-2.71-6.13l-2.47-5.28,2,5.48c.66,1.74,1.35,3.86,2.11,6.33s1.68,5.21,2.47,8.28,1.71,6.33,2.53,9.89,1.55,7.26,2.34,11.12,1.39,7.85,1.88,12,.93,8.24,1.35,12.4.6,8.31.63,12.4,0,8.15,0,12-.23,7.65-.53,11.21c-.23,3.07-.46,6-.79,8.71h-6.06c0-3.53-.23-7.32-.46-11.35s-.7-8.24-1.09-12.6-1.09-8.8-1.88-13.19-1.68-9.1-2.6-13.65-2.08-9.07-3.3-13.46-2.6-8.67-3.89-12.8-2.76-8.08-4.25-11.74-2.86-7.19-4.28-10.32-2.7-6.07-4-8.57-2.3-4.72-3.29-6.6l-3-5.61s.89,2.15,2.47,5.84c.79,1.81,1.68,4.09,2.67,6.6s2.11,5.57,3.3,8.84,2,6.13,3,9.49c-.39-1-.76-2-1.15-2.93-.86-2.28-1.65-4.26-2.38-5.87-1.41-3.3-2.2-5-2.2-5s.62,1.91,1.68,5.25c.56,1.64,1.15,3.69,1.78,6s1.41,5,2.07,7.92,1.45,6,2.11,9.4,1.25,6.89,1.91,10.55,1.09,7.49,1.42,11.34.66,7.82,1,11.78.33,7.85.29,11.74,0,7.68-.23,11.35-.39,7.22-.79,10.58c-.23,2.41-.46,4.69-.76,6.9h-.66c-.33-7.72-.29-14-.29-14s-1.45,6.2-2.84,14h-4.48c1-10.81,1.62-24.11,1.58-37.4a415.18,415.18,0,0,0-2.34-42c-.59-5.71-1.25-10.43-1.71-13.76s-.76-5.18-.76-5.18,0,1.92.2,5.25.3,8.08.26,13.78a391.11,391.11,0,0,1-2,41.63c-1.32,13-3.3,25.92-5.37,36.27l-.2-1.38-.39,2.74h-3.3c-.3-2.77-.69-5.64-1.12-8.71-.49-3.63-1.29-7.45-2-11.38s-1.65-7.95-2.77-12-2.24-8.15-3.29-12.24c-.2-.53-.37-1.06-.53-1.58V117.84c0-20,.56-39.94,1.45-54.91S265.9,38,265.9,38s-1.65,9.9-3.69,24.74c-1.91,13.59-3.92,31.33-5.44,49.47l-2.07-5c-1.29-2.84-2.51-5.54-3.76-8.15-.56-3.82-1.12-7.06-1.55-9.46-.53-3-.85-4.79-.85-4.79s0,1.78.32,4.85c0,1.62.2,3.56.3,5.77-1.35-2.7-2.67-5.31-4-7.62-1.48-2.8-2.93-5.31-4.28-7.48s-2.44-4.12-3.3-5.64c-2-3.07-3.29-4.85-3.29-4.85l2.64,5.11c.89,1.62,1.84,3.63,2.93,5.94s2.31,4.88,3.52,7.78,2.51,6,3.79,9.37c.8,2,1.55,4.15,2.28,6.36a366,366,0,0,1-1,36.88c-.4,4.84-.89,9.66-1.45,14.31l-.43-.59c-2.57-3.47-5.18-7.09-8-10.62s-5.31-6.6-8-9.73c-.89-3.73-1.81-7.46-2.8-11.18-1.25-4.75-2.6-9.47-4-14.12s-2.87-9.17-4.35-13.52c-3-8.71-6.07-16.72-8.87-23.52S205.17,60,203.32,56.1l-2.93-6,2.44,6.27c1.51,4,3.59,9.9,5.9,16.66s4.61,15.13,6.85,24c1.09,4.42,2.14,9,3.3,13.66s1.88,9.3,2.73,14l-.89-.95c-3.06-3.3-6.29-6.37-9.32-9.37l-5.87-5.38a158.64,158.64,0,0,0-4-16.81,136.34,136.34,0,0,0-10-24c-1.68-3.3-3.3-6.13-4.91-8.67s-3-4.62-4.29-6.34-2.3-3-3-3.89l-1.06-1.38,1,1.45c.59,1,1.58,2.31,2.63,4.12s2.38,4.06,3.73,6.6,2.73,5.6,4.12,8.9a137.92,137.92,0,0,1,7.15,23.42c.69,3.3,1.28,6.89,1.78,10.42-1.91-1.65-3.79-3.3-5.61-4.65l-3.78-3c-1-2.51-2-4.69-2.74-6.4-1.29-2.87-2-4.49-2-4.49L186,88.92c.42,1.35.92,3,1.48,4.88l-1.78-1.39-1.06-.79-.33-1.05c-1.38-4.42-2.66-8.71-4.05-12.7s-2.6-7.82-3.89-11.28c-2.44-7-4.64-12.7-6.23-16.72l-2.47-6.27s.7,2.34,2,6.6,3,9.89,4.87,17.11c1,3.53,1.92,7.42,2.94,11.51.72,2.94,1.45,6.07,2.17,9.24l-4.78-3.3,4.75,4,.2.2c.23.93.43,1.85.66,2.81,1.94,9,3.79,18.56,5.4,28.19,1,6.07,1.85,12.11,2.64,18l-.86-1.31c-2.21-3.11-4.68-6.37-7.08-9.37s-4.68-5.54-7-8.12c-.2-3.46-.43-6.92-.76-10.32-.36-4.58-1-9.1-1.45-13.45s-1.19-8.58-1.91-12.5-1.42-7.72-2.21-11.12-1.52-6.59-2.28-9.3-1.35-5.11-2-7.06L161,49.34l1.35,6.27c.46,2,.89,4.38,1.35,7.19s1.06,5.93,1.45,9.36.89,7.19,1.25,11.15.56,8.15.83,12.47.29,8.8.26,13.35v3.73c-2.34-2.37-4.55-4.62-6.59-6.6-1.15-4.71-2.27-8.64-3.1-11.37s-1.32-4.46-1.32-4.46.3,1.69.8,4.59c.39,2.27.89,5.41,1.38,9.07C150.53,96.27,145,91.26,145,91.26s5.21,5.77,12.72,14.64l1.45,1.72c.63,4.88,1.12,10.48,1.55,16.49s.59,12.93.59,19.59v8.21c-2.63-5.9-5.37-11.31-7.84-15.63-1.91-3.3-3.63-6.17-4.84-8.05l-1.92-3,1.59,3.3c1,2,2.34,4.94,3.82,8.51s3.1,7.78,4.65,12.33,2.8,9,4,13.69v.23c-.36,4.48-.76,8.74-1.22,12.6l-5.6.16c-.46-1.71-.95-3.5-1.51-5.31-2.34-7.52-5.21-15.83-8.34-25-2.61-7.61-5.44-15.66-8.34-23.71-2.31-13.59-5.07-26.38-7.58-36.57-1.45-6.07-2.83-11.12-3.79-14.61l-1.55-5.51,1,5.64c.66,3.56,1.52,8.7,2.41,14.87.72,4.75,1.41,10.13,2.07,15.9-3.62-9.63-7.18-18.87-10.41-27.08l.3-1.32c.39-1.45.79-2.83,1.18-4.12.58-2.23,1.28-4.43,2.08-6.6l2.07-5.77-2.57,5.58a70.05,70.05,0,0,0-2.7,6.59c-.43,1.09-.85,2.24-1.32,3.3-1-2.51-2-5-2.9-7.26-5.7-14.18-9.65-23.58-9.65-23.58s3.29,9.67,7.78,24.28c1,3.29,2.17,7,3.29,10.85l-.33,1c-1.09,3.29-2,6.59-2.93,10.45s-1.68,7.78-2.47,11.94-1.35,8.48-1.78,12.9-.76,8.93-1.09,13.42-.4,9-.36,13.45,0,8.81,0,13.2.26,8.31.49,12.17.4,7.52.66,10.85v2.27H105a2.89,2.89,0,0,0-.42-1,81.45,81.45,0,0,0-4.26-8.64c-1.51-3-3.55-6-5.5-9.14-1.08-1.58-2.17-3.16-3.29-4.75l.46-8.47-1.58,7c-.76-1-1.49-2-2.31-2.93-2.37-3.07-5.14-5.84-7.78-8.71-1.48-1.32-2.9-2.7-4.35-4v-2.11a137.81,137.81,0,0,0-2.63-23.09c-.47-2.21-1-4.35-1.62-6.6A73.71,73.71,0,0,1,75,98.22c1-1.88,1.91-3.8,3-5.54l3.3-5.08a102,102,0,0,1,7.12-8.68C93,73.78,97,69.42,99.48,66.13a52.85,52.85,0,0,0,3.66-5.28,53.61,53.61,0,0,1-4.08,4.95c-2.71,3-7,7-12.16,11.74a104.8,104.8,0,0,0-8,8.21L74.8,90.53c-1.28,1.75-2.37,3.63-3.62,5.51-.63,1.06-1.19,2.18-1.78,3.3-.86-2.28-1.75-4.45-2.71-6.4l-1.78-3.83-2-3.29c-1.41-1.95-2.63-3.6-3.78-4.89a36.63,36.63,0,0,0-2.71-2.86l-1-1,.89,1.08a32.27,32.27,0,0,1,2.38,3.1q1.77,2.51,3.29,5.18c.53,1.06,1.06,2.18,1.65,3.3l1.55,3.83a66,66,0,0,1,2.67,9.17,114,114,0,0,0-7.25,19.09c-.3,1-.56,2-.79,2.94a44.14,44.14,0,0,0-5.87-3.3,82.53,82.53,0,0,0-8.34-4.09c-1.31-.56-2.57-1.16-3.79-1.65L40,115.07c.2-2.84.27-4.55.27-4.55l-.89,4.35-.63-.23a37.41,37.41,0,0,1,.23-5c.43-11.19.53-22.37.33-33-.17-5.21-.23-10.25-.53-15s-.46-9.31-.79-13.49C37.4,39.77,36.71,32.85,36.15,28s-.86-7.58-.86-7.58,0,2.77.33,7.65S36,39.84,36,48.18V61.61c0,4.78-.36,9.89-.56,14.94-.56,10.39-1.48,21.4-2.67,32.38a19.8,19.8,0,0,1-.43,3.3L27.71,111l4.55,1.78c-1.16,9.66-2.57,19.19-4.09,28.16-1,5.08-1.78,9.9-2.77,14.65s-1.88,9-2.83,13.19c-1.39,6.2-2.7,11.41-3.82,15.67L17.92,141l-6.26,46.4-5.8-56.53L.19,189.67-5.47,191A21.15,21.15,0,0,0-5.74,187a52.05,52.05,0,0,0-.72-6.07A111.32,111.32,0,0,0-9.23,168a112.4,112.4,0,0,0-4.42-12.33c-.85-1.91-1.65-3.76-2.54-5.44s-1.68-3.3-2.53-4.72c-1.65-2.87-3.3-5.14-4.25-6.6l-1.75-2.44,1.38,2.68c.86,1.68,2.05,4.15,3.3,7.15.63,1.52,1.22,3.3,1.84,4.92s1.16,3.66,1.75,5.57a115.31,115.31,0,0,1,2.57,12.33A107.94,107.94,0,0,1-13,181.56v5.7a39.3,39.3,0,0,1-.39,5.08v1.09c-15.92,5-24.49,11.08-23.6,18.57H1445.69S1449,204.25,1420,196ZM335.14,120.45c-.4-4.39-.66-8.71-.79-12.93v-5c.79,3.93,1.51,7.92,2,11.94s.92,8.48,1.05,12.6c-.62-1.48-1.25-3-1.91-4.45A4.43,4.43,0,0,1,335.14,120.45ZM1407.46,183.6l2.8,9.9-2.17-.46Zm-29.66-32c.89-9.3,2-18.57,3.3-26.39,0,1.42.29,2.84.43,4.29a313.5,313.5,0,0,1,.82,46.17c-.26,5-.66,9.27-1,12.64l-5.57-.8v-4.38c.3-8.58,1-20.05,2-31.53Zm-24.71,21.3c.69-14.84,1.31-34.62,1.48-54.38V100.43c.63,3.06,1.22,6.16,1.65,9.46.59,4.39,1,8.94,1.18,13.46.43,9.1.17,18.24-.16,26.88s-.73,16.72-1,23.64c-.2,4.23-.37,8-.5,11.25l-3.29-.33c.29-3.43.49-7.42.69-11.91Zm-108.92-12.66c.2-3.73.4-7.59.63-11.51,0-2,.16-4,.16-6.1a48.36,48.36,0,0,0-.26-6.2c-.26-4-.46-7.85-.46-11.71V120c.56-2.34,1.09-4.69,1.61-7,2.24-3.3,4.62-6.59,6.86-9.89,2.8-3.66,5.4-7.29,8.14-10.56s5.2-6.39,7.68-9.13l.56-.66-4.65,96.2-18-.62c.56-.79,1.09-1.52,1.61-2.18,2.38-3,4.09-5,4.09-5s-2.11,1.48-5.14,3.93l-2.24,1.84a56.71,56.71,0,0,1-.69-6.36c-.1-3.2-.07-6.76.1-10.36Zm-6.92-12.33c-.59,3.89-1.18,7.71-1.78,11.41a109.47,109.47,0,0,0-1.15,11.18v7.39h-3.63c.17-1,.3-1.88.5-2.91.56-3.3,1.32-7.06,2.17-11s1.85-8,2.84-12.27a29.7,29.7,0,0,0,1.09-3.82ZM1214,175.75c1.19-3.46,2.64-7.12,4.22-11s3.29-7.88,5.27-12.11,4-8.4,6.29-12.63c1.16-2.31,2.41-4.58,3.7-6.86-1.92,5.51-3.79,10.92-5.57,16.13-1.39,4.25-2.8,8.28-4,12.24s-2.3,7.65-3.29,11.14c-.46,1.69-.89,3.3-1.29,4.95h-.3a88.89,88.89,0,0,0,2.9-11.48c.47-2.4.73-4.42.89-5.8l.24-2.21-.63,2.11c-.43,1.35-1.06,3.3-1.91,5.51a89.3,89.3,0,0,1-5.6,11.77h-1.69a9,9,0,0,0,.76-1.75Zm-49.43-6.59V177h-2.87c1.12-2.64,2.08-5.38,3-7.82Zm-123.84,8.74.69-1.42c1.28-2.57,2.54-5.08,3.82-7.52.66-.69,1.32-1.39,2-2.14a116.8,116.8,0,0,1,9.89-9.6c3.52-3,7-6.27,10.8-9.24l1.88-1.41c-3.66,4.84-7.41,9.66-10.87,14.41a149.21,149.21,0,0,0-10.58,16.32l-.23.47Zm-24-12.7,1.91-1.65-3.56,7.42c-1.25,2.71-2.47,5.25-3.56,7.55l-8.37.2a116.71,116.71,0,0,1,13.74-13.49Zm-13.18,7.12c6.59-10.06,14.4-21.63,22.63-33,4.26-5.93,8.61-11.8,12.86-17.38-7,14-13.88,28-19.78,39.91l-3.65,2.18a122.23,122.23,0,0,0-11.8,8.31Zm56.54,5.25c1.75-3.66,3.86-7.65,6.23-11.81-.43,2.94-.82,5.67-1.12,8.31l-3.29,3.5Zm16.25-16.06c0-1.55.23-3.1.36-4.72.33-3.3.7-7,1.19-10.49,1.68-2.93,3.29-5.9,4.78-8.9l2.67-1.75c1.94-1.25,3.85-2.47,5.83-3.6l3.66-2.07c0,2.77-.17,5.54-.27,8.28,0,6.39-.19,12.53-.19,18.27l-1.62,1.28c-1.55,1.19-3.06,2.54-4.71,3.93q-5,4.44-9.59,9.36c-.92,1-1.81,2.05-2.7,3.07,0-3,.2-6.3.43-9.89,3.65-5.84,6.09-9.9,6.09-9.9S1079.9,157.22,1076.37,161.51Zm4.25-30.64c.63-3,1.29-5.91,2.11-8.77.92-3.83,2.14-7.53,3.3-11.12s2.37-7,3.69-10.19c.49-1.32,1-2.57,1.51-3.83v4.29a24.35,24.35,0,0,1-.39,3.5c-.13,1.22-.46,2.5-.73,3.82a73.42,73.42,0,0,1-6.59,17.25c-1,1.72-1.91,3.36-2.9,5Zm-.53,46.4,2.11-3.3a129.53,129.53,0,0,1,8-10.22c1.39-1.55,2.74-3.07,4.09-4.42v12.2c-1.39,1.75-2.77,3.57-4.12,5.44l-.17.24Zm47.66-30.74c-2.81,4.09-5.54,8.15-8.18,12,1.06-4,2.21-8.14,3.3-12.23,2.57-8.81,5.47-17.55,8.17-25.23-.69,3.29-1.28,7-1.84,10.48-.53,4.19-1.19,8.38-1.42,12.54a21.36,21.36,0,0,1,0,2.4Zm0,20.42-.6,1c-1.49,1-3,2-4.45,3.07,1.55-2.77,3.1-5.64,4.75-8.61.1,1.46.2,3.07.33,4.75Zm11.63-26.39c6.23-11.38,12.49-22.72,17.83-32.45-.17.53-.3,1.06-.46,1.58-1.19,3.83-2.51,7.75-4,11.65s-3.3,7.81-5,11.64-3.79,7.62-5.8,11.18c-1,1.81-2.15,3.63-3.3,5.41s-1.88,3-2.83,4.42c0-2.11-.27-4.26-.37-6.6ZM1113,120.78c6.59-2.94,12.32-5,16.47-6.4l1.75-.56c-4.38,8.57-9.52,19.32-14.24,30.34-4.28,9.89-8.2,20.18-11.27,28.86,0-1.72-.29-3.3-.46-5.35s-.3-3.92-.46-6c2.47-3.59,4.25-5.83,4.25-5.83s-1.75,1.58-4.38,4.22c-.23-3.1-.43-6.37-.66-9.73l.2-.17,2.37-1.94-2.6,1.61c-.23-3.82-.47-7.71-.66-11.74s-.27-8.31-.33-12.56c3.49-1.75,6.92-3.37,10.11-4.62Zm-19.78-29c.33-.82.7-1.55,1-2.34h.17c.82-1.75,1.61-3.3,2.31-5,1-2.24,2-4.15,2.83-5.7l1.68-3.3c-.2.89-.43,1.78-.59,2.67-.53,2.8-1.22,5.61-1.62,8.48s-.89,5.74-1.35,8.61-.69,5.83-1,8.74c-.59,5.83-1.15,11.7-1.42,17.47,0,1.52-.16,3-.23,4.49-1.91.86-3.85,1.75-5.8,2.7-1.12.53-2.21,1.13-3.29,1.69l1.12-2.71a75.39,75.39,0,0,0,4.78-18.57c.16-1.38.23-2.73.33-4s0-2.5,0-3.62a50.56,50.56,0,0,0-.56-5.64Zm-39,10.92,2.83-3.46,2.57-3.14,1.09-.39a97.77,97.77,0,0,1,12.92-3.8c2-.46,3.95-.92,5.77-1.15a89.53,89.53,0,0,1,9.52-1.12,25.8,25.8,0,0,1,3.29,0l-.79,1.42-.59,1.09v-.2l-.3-1.29a7.51,7.51,0,0,0,.17,1.29,1.55,1.55,0,0,0,0,.43c-1.29,2.3-2.6,4.75-3.92,7.38s-3.13,6.6-4.75,9.9a110.11,110.11,0,0,0-4.45,11c-1.35,3.79-2.67,7.68-3.92,11.61-.56,1.91-1.12,3.82-1.65,5.74l-1.71,1c-2.08,1.28-4.19,2.6-6.2,4-4.11,2.74-8.1,5.64-11.92,8.61s-7.52,6-11,9.16c-1.71,1.59-3.53,3.14-5.08,4.66l-4.64,4.55-7.15,7.35c.23-.62.46-1.25.72-1.88,5.57-14.48,13.18-33.74,21.06-52.77,2.87-6.89,5.6-13.52,8.27-19.92Zm-57.14,35.78c2.17-2.14,4.18-4.15,6.59-6.2s4.51-4.09,6.75-6c4.55-3.9,9.3-7.65,14.14-11.08a166.46,166.46,0,0,1,14.63-9.44c3.79-2.11,7.51-4,11.21-5.7l-3.73,7.29c-7.87,8.34-16.67,18-25.24,28-12.06,14-23.66,28.46-32,39.57-1.18,1.52-2.27,3-3.29,4.36l-10.32.29c.5-1.35,1-2.77,1.68-4.28,1.22-3,2.74-6.11,4.35-9.7a115.36,115.36,0,0,1,12.33-10.72c3.1-2.34,5.79-4.12,7.7-5.34l3-1.91-3.3,1.55c-2,1-4.94,2.47-8.33,4.45-2.7,1.58-5.67,3.49-8.77,5.67a7,7,0,0,0,.46-1c.86-2.15,1.72-4.39,2.61-6.6.56-1.62,1.12-3.3,1.71-4.88,2.6-2.67,5.21-5.51,7.94-8.21Zm-58.86,42.18a109.62,109.62,0,0,1,8.61-11.41c-1,2.94-1.88,5.78-2.61,8.35-.26,1-.56,2-.79,3ZM993.13,107c-1,4.75-2.2,9.53-3.59,14.25s-3,9.37-4.65,13.85c-.85,2.25-1.74,4.42-2.6,6.6-1.15,1.12-2.34,2.21-3.46,3.3a287,287,0,0,0-19.54,21.17,205,205,0,0,1,10.45-27.28,262.78,262.78,0,0,1,17.89-31.49c2.57-4,5.17-7.75,7.84-11.51-.72,3.69-1.25,7.39-2.21,11.15Zm-27.74-6.26c1.35-2.64,2.8-5.25,4.21-7.85l2.51-1.85c3.13-2.11,6-4.06,8.57-5.64s4.87-3,6.82-4l6.09-3.3-6.32,2.77c-2,.86-4.42,2.14-7.19,3.3a81.45,81.45,0,0,0-8.24,4.55l3.3-5.91c3.3-5.77,6.59-11.44,10.08-16.82s6.76-10.58,9.89-15.5l1.65-2.44v1.42c.36,4.35.69,10.59.62,18,0,3.73-.19,7.78-.49,12,0,2-.33,4-.53,6l-2.8,3.3c-3.92,4.75-7.87,9.9-11.6,14.78a268.38,268.38,0,0,0-20.2,31.33c-2.8,5.24-5.44,10.39-7.68,15.43s-4.15,9.9-5.83,14.42c-.23.59-.4,1.15-.59,1.74l-2,1.52a115.55,115.55,0,0,0-13,12l-.56.66h-2.25c1.32-3.79,2.87-7.92,4.55-12.4s3.89-9.9,6-15.21,4.61-11.05,7.28-16.78,5.41-11.74,8.27-17.75,6.3-11.77,9.53-17.74Zm-50.26,80.7.5-1.15a103.53,103.53,0,0,1,8.43-14.52c-1.84,4.23-3.59,8.12-5,11.55-.63,1.42-1.19,2.77-1.72,4Zm2.64-27.9c1-2.05,2.11-4.12,3.29-6.17s2.34-4.15,3.69-6.17c2.54-4.12,5.37-8.18,8.31-12.13,1.51-2,3-3.93,4.58-5.84l4.78-5.61c1.64-1.81,3.29-3.56,4.94-5.31s3.3-3.3,5-5L956,104l-6.59,11.22c-3.3,5.9-6.59,11.7-9.46,17.44s-5.57,11-8.14,16.2L927.26,151c-3.3,1.65-7.22,3.56-11.24,5.67a27.29,27.29,0,0,0,1.85-3.13Zm-7.91,17.78,2.3-5.88c.63-1.41,1.29-2.86,1.92-4.32,5.07-3.29,9.88-6.26,14-8.77l3-1.75c-1.81,3.86-3.53,7.52-5.14,11.08-.73.63-1.48,1.36-2.34,2.18a100.09,100.09,0,0,0-12.09,14c-.89,1.25-1.75,2.53-2.57,3.82H906.1c.59-1.65,1.22-3.3,1.81-5.11s1.39-3.6,2.05-5.24Zm-12.79,1.48,1.12-.79-.29.66c-1.62,3.69-3.07,6.89-4.45,9.56l-6.59.26,1.58-3.29c2.83-2.05,5.76-4.26,8.73-6.4Zm-36.64,2.8a95.76,95.76,0,0,1,6.13-9.89c2.37-3.3,5.2-7.32,8-10.85,1.38-1.85,2.9-3.66,4.48-5.51.92-1.12,1.91-2.21,2.9-3.3,3.29-2.44,6.39-4.65,9.19-6.59,7.78-5.22,13.18-8.48,13.18-8.48s-5.6,2.74-13.84,7.19l-2.57,1.42,1.12-1.19c1.72-1.81,3.5-3.6,5.34-5.31s3.59-3.5,5.51-5.15,3.72-3.29,5.63-4.91c3.76-3.3,7.65-6.2,11.44-9s6.95-4.92,10.28-7.13c-5.18,8.35-11.21,17.29-17.37,26.19-2.57,3.73-5.17,7.68-7.68,11.08s-5.4,6.83-8.1,10.09c-5.44,6.6-10.58,12.93-14.57,18.9a83.51,83.51,0,0,0-4.84,8.35l-2.51,1.71-15.19.59a50.41,50.41,0,0,1,3.53-8.21Zm-59.88-4.42a173.92,173.92,0,0,1,6.36-17.11A195.56,195.56,0,0,1,834.36,140c-.63.39-1.22.82-1.85,1.28a126.16,126.16,0,0,0-10.77,8.51c-1.88,1.68-3.76,3.53-5.6,5.48a68.74,68.74,0,0,0-5.18,6.26,71,71,0,0,0-4.41,7.09,57,57,0,0,0-3.3,7.46,49.32,49.32,0,0,0-2.37,9.89l-4.25.2c.26-1.32.56-2.77.92-4.32.92-3.07,1.88-6.73,3.1-10.69Zm-29.89,16.1a46.12,46.12,0,0,1,4.71-7A84.33,84.33,0,0,1,782,173a111.3,111.3,0,0,1,9.59-8.31c-.23.53-.43,1.06-.62,1.59s-.4,1-.56,1.38c-1.59,4.12-2.87,8-4,11.38s-1.61,5.61-2.17,7.95l-13.71.66Zm-52.73-9.9c2.18,3.07,4.22,5.94,5.94,8.71.46.69.89,1.38,1.31,2.08l-7.11-.4c-.4-3.3-.93-7.58-1.65-12.4.56.6,1,1.26,1.58,1.91ZM694.87,184l-2.34-4.45c-.93-1.55-1.85-3.3-2.81-4.82-1.91-3.3-4.08-6.59-6.42-9.89s-4.91-6.76-7.58-10.13-5.6-6.59-8.6-9.89c-1.45-1.62-3-3.14-4.58-4.65s-3.1-3-4.71-4.45c-3.14-2.91-6.4-5.58-9.56-8.12s-5.37-4-8-5.87l2.64.59a75,75,0,0,1,8.7,2.48,37.91,37.91,0,0,1,4.84,1.78c1.65.69,3.3,1.32,5.11,2.11a112.21,112.21,0,0,1,10.51,5.57,124.3,124.3,0,0,1,10.62,7l5.17,4c1.71,1.39,3.29,2.87,5,4.29s3.29,2.94,4.81,4.45,3.3,3,4.61,4.59l1.91,2.08c.37,4.22.66,8.21,1,11.9.43,5.68.73,10.66.86,14.58l-9.89-.5Zm-41.82-18.57c1.25,1.39,2.44,2.84,3.59,4.29.3.56.59,1.15.86,1.75A64.52,64.52,0,0,1,662,184.89h-2.9c-1.72-2.84-3.59-6.6-5.77-11-1.12-2.25-2.24-4.62-3.69-7.26s-2.67-5-4.38-7.78c-.76-1.32-1.55-2.61-2.34-3.93l2.5,2.41c1.35,1.29,2.67,2.67,3.92,4.06s2.54,2.57,3.73,4Zm-17-26.88A82,82,0,0,1,647,152.37c-2.48-2.08-5-4.06-7.58-5.9l-4.16-2.87L634,141.75c-3.07-4.12-6.59-8.28-9.89-12.4a55.89,55.89,0,0,1,12,9.2ZM626,147.32a183.51,183.51,0,0,1,9.88,16.5c1.39,2.5,2.64,5.24,3.86,7.75s2.18,4.75,3.3,7l2.4,5.51-11-.53-1.84-1.48c-.56-1.52-1.19-3.3-1.88-4.88s-1.51-3.86-2.34-5.94l-2.83-6.4c-1-2.21-2-4.55-3.3-6.89s-2.44-4.75-3.69-7.22-2.64-5-4.09-7.52-2.9-5.15-4.44-7.72l-2.64-4.16,4.25,1.75c2,1.06,4.28,2.11,6.59,3.3C620.88,140.17,623.55,143.8,626,147.32Zm-19.21,35-10.22-7.52c-.49-1.06-1-2.08-1.48-3.3-1.55-3.46-3.3-7.12-5.27-11s-4.06-7.88-6.23-12l-.79-1.46-.3-1.15a8,8,0,0,0-.43-1.68c2.67,2.08,5.37,4.25,8,6.6,3.29,2.93,6.59,6.06,9.88,9.2,6.6,6.33,12.82,12.86,18.89,19l.59,1.85c.23.69.43,1.32.63,2Zm.72-58.61h.13c1.85,2,3.66,4.12,5.41,6.23l2.34,2.87-3.3-1.32c-2.07-.62-3.95-1.28-5.73-1.81-2.11-3.3-4.32-6.6-6.59-9.89-3.56-5.28-7.65-10.26-11.54-15.37a250.16,250.16,0,0,1,19.28,19.39ZM583,108.38c3.49,5.21,7.15,10.32,10.25,15.66.72,1.09,1.38,2.21,2,3.3l-1.94-.33,2.07.53c2.41,4.09,4.62,8.21,6.82,12.2,1.36,2.61,2.58,5.21,3.83,7.75s2.47,5,3.49,7.49l3.1,7.15c.59,1.39,1.09,2.74,1.61,4.09-3.62-3.29-7.31-6.59-11.1-9.69s-7.05-5.84-10.68-8.64-7.25-5.38-10.84-7.76c.16-4,.36-8,.29-12.13,0-5.38-.23-10.85-.39-16.33,0-2-.33-3.92-.46-5.9a14.45,14.45,0,0,0,1.91,2.7Zm-5.57,72.55h-.86l.6-2.77c.1,1.22.16,2.15.26,3ZM553.72,180c0-2.11,0-4.32-.16-6.59.3,1.12.62,2.2.92,3.29s.53,2.35.76,3.47Zm-13.57-.53c-1-2.47-2.18-5.14-3.53-7.94-1.55-3.3-3.3-7.09-5.37-10.89s-4.29-7.75-6.59-11.84c-2-3.3-4.09-6.59-6.3-9.89l-.49-4.55q3,5.59,6.13,11.18c6.29,11.38,12.69,22.62,18.42,32.58v1.52Zm-19.78-.69v-8.64c0-3.1,0-6-.29-9.23a60.69,60.69,0,0,1,2.6,7.78,75.88,75.88,0,0,1,1.81,9.1v1.09Zm-11.93-.39c-4.58-9.9-9.88-21.87-15.45-33.78-3.3-7.35-6.59-14.71-9.89-21.63a152,152,0,0,1-7.35-19.23,74.09,74.09,0,0,1-2.7-13.52l4.62,4.91c2.9,3.07,5.66,6.6,8.63,9.9a117,117,0,0,1,8.57,11.18c2.73,3.92,5.5,7.91,8.24,11.94s4.71,7.62,6.85,11.47v17.55c0,4.52-.26,8.8-.49,12.73-.17,3.07-.37,5.84-.56,8.44Zm49-31.93c-1.38-.89-2.77-1.71-4.15-2.51-.2-5.73-.6-11.67-1.39-17.67a91.39,91.39,0,0,1,8.41,3.72c2.14,1.06,4.38,2.34,6.59,3.66,1.88,3.73,3.66,7.39,5.34,11.05v.53c-.53,3.56-1.06,7-1.68,10.36-4.35-3-8.77-6.1-13.19-8.88Zm12.36,13.85c-.66,3.3-1.29,6.3-2.05,9.17-.49,2.14-1,4.16-1.51,6-.2-.7-.4-1.36-.59-2.08-.76-2.24-1.55-4.65-2.41-7.16s-2-5.08-3.06-7.78-2.9-6.33-4.55-9.63c4.68,3.79,9.39,7.68,14.1,11.61ZM561,128.69a93.07,93.07,0,0,0-9.19-3.3c-.3-2.11-.59-4.19-1-6.3s-1-4.88-1.72-7.25l-1-3.63-1.15-3.3c-1.68-4.65-3.56-9-5.44-13.19l-2.6-5.67c.85,1.28,1.74,2.54,2.63,3.89,2.41,3.49,4.75,7.32,7.25,11.21,4.91,7.88,9.89,16.49,14.47,25.17.79,1.48,1.55,3,2.31,4.48-1.58-.56-3-1.25-4.58-1.84ZM545.09,131c-1.48-2.18-3-4.39-4.61-6.6-.47-.66-1-1.32-1.45-2l1.51.37c1,.23,2.44.53,4.22,1.09.1,2.63.23,5,.26,7.35Zm-6,7.88c1.45,2.54,2.84,5.08,4.06,7.58.53,1,1,1.95,1.45,2.94-.4,6-.92,11.67-1.35,17-4.88-7.42-9.89-15.33-15.1-23.28l-6-8.94a4.5,4.5,0,0,1,1.68.23,54.44,54.44,0,0,1,14,4.29,5.88,5.88,0,0,1,1.12.46ZM524,133.6h-1.91l-5.47-8.74c-.66-4.51-1.52-9.07-2.38-13.62-.59-2.57-1.12-5.14-1.71-7.68,2.8,2.94,5.57,5.94,8.14,9a194.8,194.8,0,0,1,12.65,16.95c1.59,2.45,3.1,4.89,4.52,7.29a56.07,56.07,0,0,0-13.91-2.93Zm41.26-47.69c2.14,2.41,4.28,4.85,6.32,7.46,1.19,1.35,2.28,2.8,3.3,4.22.2,4.65.16,9.33.2,14,0,2.8-.2,5.57-.3,8.34-1.22-3.59-2.47-7.22-3.92-10.85-2.31-6.36-5.14-12.63-7.81-18.93-1.38-2.94-2.74-5.84-4.15-8.74,2.14,1.71,4.22,3.23,6.29,4.75Zm-8,6.6c2.24,6.37,4.65,12.63,6.59,19,.79,2.45,1.52,4.85,2.18,7.26-4.58-7-9.26-13.75-13.91-20C549.31,95,546.61,91.32,543.9,88s-5.2-6.59-7.64-9.36L535,77.11c-1.22-2.84-2.37-5.61-3.29-8.21s-1.39-4.19-1.95-6.14c3.63,2.11,7.32,4.29,11,6.6,3.1,1.88,6.2,3.86,9.3,5.9,2.57,6.1,4.74,11.81,7.15,17.61ZM530.66,53.13l5.27,4.32c1.81,1.55,3.75,3.07,5.67,4.78L545.68,66c.37.69.66,1.42,1,2.15l-4-2.25c-4.84-2.67-9.52-5.11-14.17-7.45-.2-1-.4-2-.53-2.94a30.53,30.53,0,0,1-.43-3.29V50.92ZM500.27,67c-1.94-4.19-3.79-8.15-5.83-11.65l-2.84-5L488.8,46A70.74,70.74,0,0,0,484,39l-.47-.6c5.77,2.81,12.82,6.33,20.83,10.49,7.25,3.76,15.29,8.11,23.66,12.93.4,2.41,1,4.91,1.65,7.65.2.79.46,1.62.72,2.41l-.88-1c-2-2.28-3.76-4.22-5.24-5.81l-4.62-4.65,4.22,5.38c1.38,1.68,3,3.79,4.78,6.2l2.83,3.83c1.78,5.47,4,11.37,6.2,17.54,1.51,4.26,3,8.67,4.18,13.19l.89,3.3.66,3.3c.5,2.27.73,4.62,1.06,6.93a32.31,32.31,0,0,0,.26,3.29c-1.75-.39-3.3-.59-4.15-.76l-1.58-.26c-3.89-5.11-8.14-10.16-12.66-15.07a218.08,218.08,0,0,0-16.48-15.7l-.69-.56c-1.09-3.6-2.24-7.12-3.29-10.55-.83-2.38-1.85-4.65-2.71-6.93a59.19,59.19,0,0,0-3-6.2Zm5,29.05v.5c1,4.42,1.58,9,2.27,13.59-6.39-10.46-11.76-19.4-15.19-25.2,4.25,3.89,8.64,7.52,12.85,11.48ZM438.22,50.76A334.59,334.59,0,0,1,471.4,69.59c5.84,3.79,11.7,8,17.47,12.43l2.64,2.15c3.49,6.82,9.62,18.7,16.93,32.48.33,3,.63,6.07.83,9.07l-.92-1.25c-3.1-3.89-6.1-7.85-9.36-11.48s-6.59-7.22-9.63-10.62A111.72,111.72,0,0,0,479.81,93c-2.41-2.25-4.72-4.29-7-6.24v-.16l-1.78-1.52c-2.8-2.44-5.47-4.55-7.84-6.37s-4.45-3.29-6.19-4.65l-5.51-3.95,4.88,4.65c1.68,1.35,3.59,3.1,5.8,5.11s4.68,4.32,7.25,6.93c1,1,2,2,3.06,3.13a74.87,74.87,0,0,0,1.75,14.38,152,152,0,0,0,6,20l8.24,22.32,11.73,31.63H494.5c-1.41-8.08-3.29-14.84-3.29-14.84v7.19c-1-2.74-2-5.6-3.1-8.64-1.38-3.82-3-7.82-4.61-12-3.3-8.28-7.05-17-11-25.59s-8.2-17-12.36-24.87c-2.11-3.89-4.08-7.69-6.13-11.21s-3.88-6.86-5.7-9.9c-3.59-6.07-6.59-11.08-8.93-14.54L436,58.28l3,5.74c1.95,3.62,4.62,8.83,7.68,15.2,1.55,3.3,3.13,6.6,4.81,10.29s3.3,7.59,5.14,11.61c3.3,8.08,6.86,16.79,10.09,25.56s6.13,17.68,8.67,26c1.09,3.63,2.12,7.13,3.06,10.49-3.3-4.71-6.59-9.66-10.38-14.77-5.87-7.95-12.29-16.2-18.69-24.44s-12.52-15.77-19-22.76c-1.22-13.69-2-26.71-2.44-37.23-.36-7.43-.49-13.59-.59-17.91v-.3c3.43,1.68,7,3.4,10.87,5.31ZM467.42,177c-.2-.36-.33-.73-.53-1.09l-2.8-6.1-2.67-5.31-2.51-6.4.4,2.27c-.69-1.38-1.42-2.83-2.24-4.25l-4.19-7.45c-1.41-2.61-3-5.18-4.64-7.79s-3.3-5.31-5-8c-3.59-5.27-7.19-10.78-11.27-16.09-.3-2.71-.6-5.41-.86-8.12,4.45,6,8.8,12.37,13.18,18.8,5.74,8.71,11.5,17.38,16.48,25.63s9.66,16,13.18,22.79l.66,1.32Zm-25.21-.69c-.83-1.79-1.62-3.47-2.38-4.95-1.87-10.29-3.92-23.09-5.7-36.71l1.68,2.84c1.52,2.7,2.94,5.4,4.39,8s2.83,5.18,4.05,7.79,2.44,5,3.62,7.45,2.15,4.82,3.3,7.06l2.83,6.59.89,2.31ZM393.3,72.39l3.3,2,3.62,2.51a103.1,103.1,0,0,1,8.31,6.59c2.93,2.54,5.9,5.48,9,8.71s5.31,5.93,7.94,9.2v7c-2-2.51-4.05-5-6.06-7.52-4.52-5.08-8.9-10.29-13.58-15s-9.36-9.4-13.9-13.82l-1.09-1a10.49,10.49,0,0,0,2.44,1.82ZM364,51.68c1.91,1.65,3.95,3.3,6,5.11l6.16,5.68c2.18,1.91,4.25,4,6.4,6.16s4.31,4.29,6.59,6.6c4.22,4.65,8.7,9.33,12.88,14.41s8.31,10.32,12.43,15.57a186.57,186.57,0,0,1,11.33,16.32c.63,18.9,2,37.57,3.3,51.68a16.23,16.23,0,0,0,.29,3.07h-5.5a3,3,0,0,0-.33-1,194.44,194.44,0,0,0-7.41-18c-2.28-4.75-4-7.85-4-7.85s1.12,3.29,2.54,8.37c.69,2.41,1.42,5.25,2.11,8.25-1.85-4.06-3.86-8.21-6-12.34A289.78,289.78,0,0,0,395.28,127c-4.58-7-7.91-11.51-7.91-11.51s2.64,4.92,6.16,12.47A293.42,293.42,0,0,1,405,156.23c2.31,6.6,4.35,13.59,6,19.79h-5.34c-.76-1.19-1.58-2.38-2.44-3.63-.4-2.77-.92-5.67-1.48-8.71-.2-1.12-.5-2.27-.73-3.3l-.2-4.51-.33,2c-.46-2-.92-4-1.41-6.07-1.12-4.09-2.18-8.34-3.6-12.56s-2.86-8.48-4.38-12.73-3.29-8.38-5.17-12.37-3.79-7.92-5.67-11.68-3.89-7.28-5.9-10.55-3.85-6.4-5.77-9.17-3.59-5.31-5.2-7.49-3-4.08-4.19-5.6l-3.29-4a128.8,128.8,0,0,1,4.61-16.49ZM352.34,72.26c-1.78-6-3.29-11.64-4.94-16.75C344.73,46.37,342.55,39,341.1,34l3.76,2.63c2.41,1.65,5.24,3.83,8.47,6.37l5.14,4,1.75,1.45a122.84,122.84,0,0,0-6.33,17.45c-.56,2-1.09,4.15-1.55,6.36Zm13.18,44.13c-1-2.61-1.88-5.21-2.73-8s-1.62-5.54-2.41-8.28c-1.61-5.47-3.29-10.88-4.74-16.09l-1.59-5.44a97,97,0,0,1,1.65-12.24l.2-1,2.74,4.19c1.08,1.59,2.3,3.6,3.65,5.94s3,4.91,4.48,7.88,3.3,6.1,4.88,9.5,3.3,7.12,4.85,10.88,3.13,7.79,4.48,11.88,2.67,8.31,3.95,12.46a120.71,120.71,0,0,1,3.13,12.67c.83,4.22,1.65,8.38,2.38,12.4a13.45,13.45,0,0,0,.33,2.34c-2.74-3.5-5.54-7.06-8.34-10.78-3.3-4.29-6.36-8.81-9.36-13.49l-1.85-3.3c-1.64-15.31-3.29-27-3.29-27s0,8.51-.2,20.38c-.63-1.52-1.42-3.2-2.08-5Zm7.75,33.44.33.6c2.47,4.18,4.74,8.24,6.59,12.1,1,1.95,1.84,3.86,2.7,5.67s1.48,3.63,2.17,5.34l.6,1.82h-5.34L377,160.09v15.2H375c-.27-7.72-.83-16.55-1.55-25.43ZM253.48,119.39c.53,1.91,1,3.83,1.45,5.77-.36,5.54-.66,11-.92,16.49,0-.27,0-.55,0-.82-.3-8.91-.93-17.75-1.75-25.73.49,1.36,1,2.84,1.35,4.32Zm-15,39.58c2,3.53,4,6.89,5.7,10.19-.26,1.68-.56,3.3-.82,4.91H238c-.63-3.06-1.22-6.59-1.91-10.22s-1.59-8.41-2.51-12.8c1.81,2.87,3.46,5.44,5,8Zm-30.94-42.65c2.73,3.3,5.63,6.6,8.33,9.9,2.31,2.77,4.45,5.7,6.6,8.6.92,5.91,1.71,11.71,2.4,17.32.59,4.52,1,8.84,1.48,13,.33,3.14.6,6.07.89,9H222.5l-1.32-10.91-1.31,10.95H209.55c-.3-1.59-.53-3.13-.66-4.45-.46-3.76-.56-6.3-.56-6.3a9.25,9.25,0,0,1-.36,2.14,300.39,300.39,0,0,0-1.58-46.17c-.23-1.78-.53-3.53-.79-5.28Zm-16-16.72c2.41,2.24,4.88,4.78,7.49,7.49.49,4.25.85,8.61,1,13,0,3.5.19,7,0,10.49-1-4.19-2-8.28-3.07-12.17-1-3.3-1.88-6.43-2.9-9.37s-1.94-5.7-2.93-8.24c-.3-.76-.56-1.49-.86-2.21Zm-6.59-6.07,3,2.71c.43,1.58.89,3.3,1.35,5.11.69,2.61,1.32,5.44,2,8.44s1.22,6.2,1.81,9.47,1.12,7.35,1.55,11.15c-.89-4-1.81-8-2.8-12-1.91-8.41-4.22-16.82-6.59-24.8Zm-17.76,24.21v4.91c0,4.46-.39,8.94-.66,13.2-.62-4.32-1.28-8.61-2-12.67s-1.71-8.57-2.6-12.4c1.88,2.41,3.69,4.65,5.54,7.06Zm6.59,8.84,2.44,3.56c2,3.3,4,6.33,5.9,9.9s3.49,6.59,5,10.06,2.6,6.3,3.66,9.39v1.89c.36,4.18.69,8.11.92,11.77v1.68h-8.5c.23-2.34.49-4.55.79-6.43.56-3.86,1.12-6.6,1.12-6.6s-1.12,2.38-2.57,6.1c-.79,1.95-1.65,4.33-2.47,6.86h-6.59v-1a453.49,453.49,0,0,0,.39-47.06Zm-32.13,46.5.3,1.49-.4,1.42a25.23,25.23,0,0,0-.26-4.39c.2.59.33,1.12.46,1.58Zm-23.53,1.09q-.78-4.95-1.58-10.59c-.53-3.76-1-7.75-1.55-11.84s-.92-8.37-1.22-12.69-.59-8.74-.82-13.2a118.44,118.44,0,0,1,0-13.19c.26-4.35.33-8.61.59-12.73a117.56,117.56,0,0,1,1.39-11.84c.46-2.93,1-5.67,1.48-8.28,3.62,11.91,7.61,25.46,11.37,39.12.89,3.3,1.75,6.4,2.64,9.56v2.21c.88,16.49.88,33,.36,45.38v.33h-2.38c0-1.48-.16-3-.26-4.51-1-15.67-2.77-31.2-2.77-31.2s-.62,15.63-2,31.16c-.16,1.62-.29,3.3-.46,4.82l-4.28.2Zm-27.55-3.76c.33.73.7,1.45,1,2.18.89,2.14,1.65,4.15,2.31,6.1l-3.73.26Zm-14.5-24c2,2.74,4.16,5.37,5.9,8.21s3.73,6.13,5.41,9.1c0,.3.29.56.43.83l-3.3,14.84-7.61.56a7.33,7.33,0,0,0-.23-2.21c-.43-5.61-.6-12.27-.6-19.49,0-3.93,0-7.92,0-12Zm-9.42-22.82a99.85,99.85,0,0,1,2.63-10.76h0a123.56,123.56,0,0,1,.4,19.33c-1.32-1.05-2.64-2.08-4-3,.27-2,.53-3.86,1-5.68Zm-2.28,20.11q.06-3.3.43-6.59a9.51,9.51,0,0,1,.23-2.54c1.06,1,2.11,1.94,3.1,3,.4.37.73.76,1.09,1.12-.4,4.75-.86,9.44-1.35,14,.39-6,.79-9.89.79-9.89s-2,7.78-4.09,17.87c-.2-3.3-.36-6.59-.33-10.29-.06-2.51,0-4.68.13-6.86Zm-25.8-27.73.43.19-.56,2.61C38.35,117.81,38.55,116.85,38.55,115.93ZM38,138.49c.36-5.18.82-9.9,1.18-14.15.3-3,.5-5.67.66-7.82l1.29.59,3.53,2a85.69,85.69,0,0,1,7.67,4.81c2.18,1.42,4.29,3.3,6.59,4.85-.59,2.31-1,4.65-1.38,7s-.79,4.65-1,6.93-.6,4.58-.73,6.83c-.43,4.48-.53,8.83-.63,13a104.45,104.45,0,0,0,.33,11.67,70.36,70.36,0,0,0,.6,7.33c-2.31.19-4.58.46-6.82.69l-3.3-41.29-3.29,42h-.24l-.29-.49A45.59,45.59,0,0,1,40,176.91c-.46-2.15-1.18-4.32-1.48-6.79,0-1.23-.4-2.45-.53-3.73s-.23-2.57-.36-3.86c-.23-2.64-.23-5.34-.3-8.05-.06-5.34.17-10.85.53-16ZM31,182.35a9.14,9.14,0,0,0,.46,2.08h-.86Z" style="fill: #0d0c1c"/>
</svg>
