<svg viewBox="0 0 68 68" fill="none" xmlns="http://www.w3.org/2000/svg">
  <g id="root">
    <path d="M61.625 14.875H51V11.1562C51 10.8641 50.7609 10.625 50.4688 10.625H46.75C46.4578 10.625 46.2188 10.8641 46.2188 11.1562V14.875H36.3906V11.1562C36.3906 10.8641 36.1516 10.625 35.8594 10.625H32.1406C31.8484 10.625 31.6094 10.8641 31.6094 11.1562V14.875H21.7812V11.1562C21.7812 10.8641 21.5422 10.625 21.25 10.625H17.5312C17.2391 10.625 17 10.8641 17 11.1562V14.875H6.375C5.19961 14.875 4.25 15.8246 4.25 17V55.25C4.25 56.4254 5.19961 57.375 6.375 57.375H61.625C62.8004 57.375 63.75 56.4254 63.75 55.25V17C63.75 15.8246 62.8004 14.875 61.625 14.875ZM58.9688 52.5938H9.03125V19.6562H17V23.375C17 23.6672 17.2391 23.9062 17.5312 23.9062H21.25C21.5422 23.9062 21.7812 23.6672 21.7812 23.375V19.6562H31.6094V23.375C31.6094 23.6672 31.8484 23.9062 32.1406 23.9062H35.8594C36.1516 23.9062 36.3906 23.6672 36.3906 23.375V19.6562H46.2188V23.375C46.2188 23.6672 46.4578 23.9062 46.75 23.9062H50.4688C50.7609 23.9062 51 23.6672 51 23.375V19.6562H58.9688V52.5938ZM27.625 32.9375H15.4062C15.1141 32.9375 14.875 33.1766 14.875 33.4688V36.6562C14.875 36.9484 15.1141 37.1875 15.4062 37.1875H27.625C27.9172 37.1875 28.1562 36.9484 28.1562 36.6562V33.4688C28.1562 33.1766 27.9172 32.9375 27.625 32.9375ZM27.625 41.9688H15.4062C15.1141 41.9688 14.875 42.2078 14.875 42.5V45.6875C14.875 45.9797 15.1141 46.2188 15.4062 46.2188H27.625C27.9172 46.2188 28.1562 45.9797 28.1562 45.6875V42.5C28.1562 42.2078 27.9172 41.9688 27.625 41.9688ZM48.0914 30.1883L41.2117 39.7309L37.7055 34.8766C37.5062 34.5977 37.1875 34.4383 36.8488 34.4383H33.2031C32.7715 34.4383 32.5191 34.9297 32.7715 35.2816L40.3484 45.7871C40.4463 45.9229 40.5749 46.0334 40.7239 46.1097C40.8728 46.1859 41.0378 46.2257 41.2051 46.2257C41.3724 46.2257 41.5373 46.1859 41.6863 46.1097C41.8352 46.0334 41.9639 45.9229 42.0617 45.7871L53.0188 30.6C53.2711 30.248 53.0188 29.7566 52.5871 29.7566H48.9414C48.6094 29.75 48.2906 29.916 48.0914 30.1883Z" fill="white"/>
  </g>
</svg>
