<svg viewBox="0 0 68 68" fill="none" xmlns="http://www.w3.org/2000/svg">
  <g id="root">
    <path d="M61.625 10.6914H46.4313C43.1707 10.6914 39.9832 11.6277 37.2406 13.3941L34 15.4727L30.7594 13.3941C28.0195 11.6281 24.8285 10.6897 21.5687 10.6914H6.375C5.19961 10.6914 4.25 11.641 4.25 12.8164V50.5352C4.25 51.7105 5.19961 52.6602 6.375 52.6602H21.5687C24.8293 52.6602 28.0168 53.5965 30.7594 55.3629L33.7078 57.2621C33.7941 57.3152 33.8937 57.3484 33.9934 57.3484C34.093 57.3484 34.1926 57.3219 34.2789 57.2621L37.2273 55.3629C39.9766 53.5965 43.1707 52.6602 46.4313 52.6602H61.625C62.8004 52.6602 63.75 51.7105 63.75 50.5352V12.8164C63.75 11.641 62.8004 10.6914 61.625 10.6914ZM21.5687 47.8789H9.03125V15.4727H21.5687C23.9195 15.4727 26.2039 16.1434 28.1762 17.4117L31.4168 19.4902L31.875 19.7891V50.4687C28.7141 48.7687 25.1812 47.8789 21.5687 47.8789ZM58.9688 47.8789H46.4313C42.8188 47.8789 39.2859 48.7687 36.125 50.4687V19.7891L36.5832 19.4902L39.8238 17.4117C41.7961 16.1434 44.0805 15.4727 46.4313 15.4727H58.9688V47.8789ZM26.3566 23.9727H14.0184C13.7594 23.9727 13.5469 24.1984 13.5469 24.4707V27.459C13.5469 27.7313 13.7594 27.957 14.0184 27.957H26.35C26.609 27.957 26.8215 27.7313 26.8215 27.459V24.4707C26.8281 24.1984 26.6156 23.9727 26.3566 23.9727ZM41.1719 24.4707V27.459C41.1719 27.7313 41.3844 27.957 41.6434 27.957H53.975C54.234 27.957 54.4465 27.7313 54.4465 27.459V24.4707C54.4465 24.1984 54.234 23.9727 53.975 23.9727H41.6434C41.3844 23.9727 41.1719 24.1984 41.1719 24.4707ZM26.3566 33.2695H14.0184C13.7594 33.2695 13.5469 33.4953 13.5469 33.7676V36.7559C13.5469 37.0281 13.7594 37.2539 14.0184 37.2539H26.35C26.609 37.2539 26.8215 37.0281 26.8215 36.7559V33.7676C26.8281 33.4953 26.6156 33.2695 26.3566 33.2695ZM53.9816 33.2695H41.6434C41.3844 33.2695 41.1719 33.4953 41.1719 33.7676V36.7559C41.1719 37.0281 41.3844 37.2539 41.6434 37.2539H53.975C54.234 37.2539 54.4465 37.0281 54.4465 36.7559V33.7676C54.4531 33.4953 54.2406 33.2695 53.9816 33.2695Z" fill="white"/>
  </g>
</svg>
