<svg viewBox="0 0 67 67" fill="none" xmlns="http://www.w3.org/2000/svg">
  <g id="root">
    <path d="M33.7617 43.4548C33.7617 43.7389 33.9842 43.9713 34.2524 43.9713H46.3569C46.6252 43.9713 46.8477 43.7389 46.8477 43.4548V40.3555C46.8477 40.0714 46.6252 39.8389 46.3569 39.8389H34.2524C33.9842 39.8389 33.7617 40.0714 33.7617 40.3555V43.4548ZM21.0095 43.8486L33.572 33.4531C33.8206 33.2464 33.8206 32.8655 33.572 32.6589L21.0095 22.2698C20.9336 22.2061 20.8409 22.1653 20.7422 22.1521C20.6436 22.1389 20.5432 22.154 20.4529 22.1955C20.3627 22.2369 20.2864 22.3031 20.2331 22.3861C20.1798 22.4691 20.1518 22.5654 20.1523 22.6636V26.7121C20.1523 26.8671 20.2178 27.0091 20.3421 27.106L27.5263 33.0592L20.3421 39.0124C20.2836 39.0607 20.2364 39.1209 20.2036 39.1889C20.1709 39.2569 20.1534 39.331 20.1523 39.4063V43.4548C20.1523 43.8938 20.6692 44.1327 21.0095 43.8486ZM57.5781 7.23169H9.42188C8.26377 7.23169 7.32812 8.15502 7.32812 9.29789V56.8205C7.32812 57.9634 8.26377 58.8867 9.42188 58.8867H57.5781C58.7362 58.8867 59.6719 57.9634 59.6719 56.8205V9.29789C59.6719 8.15502 58.7362 7.23169 57.5781 7.23169ZM54.9609 54.2378H12.0391V11.8806H54.9609V54.2378Z" fill="white"/>
  </g>
</svg>
