<svg viewBox="0 0 68 68" fill="none" xmlns="http://www.w3.org/2000/svg">
  <g id="root">
    <path d="M30.8129 34C30.8129 34.8454 31.1487 35.6561 31.7465 36.2539C32.3442 36.8517 33.155 37.1875 34.0004 37.1875C34.8458 37.1875 35.6565 36.8517 36.2543 36.2539C36.8521 35.6561 37.1879 34.8454 37.1879 34C37.1879 33.1546 36.8521 32.3439 36.2543 31.7461C35.6565 31.1483 34.8458 30.8125 34.0004 30.8125C33.155 30.8125 32.3442 31.1483 31.7465 31.7461C31.1487 32.3439 30.8129 33.1546 30.8129 34V34ZM44.0941 34C44.0941 34.8454 44.43 35.6561 45.0277 36.2539C45.6255 36.8517 46.4362 37.1875 47.2816 37.1875C48.127 37.1875 48.9378 36.8517 49.5355 36.2539C50.1333 35.6561 50.4691 34.8454 50.4691 34C50.4691 33.1546 50.1333 32.3439 49.5355 31.7461C48.9378 31.1483 48.127 30.8125 47.2816 30.8125C46.4362 30.8125 45.6255 31.1483 45.0277 31.7461C44.43 32.3439 44.0941 33.1546 44.0941 34ZM17.5316 34C17.5316 34.8454 17.8675 35.6561 18.4652 36.2539C19.063 36.8517 19.8737 37.1875 20.7191 37.1875C21.5645 37.1875 22.3753 36.8517 22.973 36.2539C23.5708 35.6561 23.9066 34.8454 23.9066 34C23.9066 33.1546 23.5708 32.3439 22.973 31.7461C22.3753 31.1483 21.5645 30.8125 20.7191 30.8125C19.8737 30.8125 19.063 31.1483 18.4652 31.7461C17.8675 32.3439 17.5316 33.1546 17.5316 34V34ZM61.4394 22.4719C59.9387 18.9059 57.7871 15.7051 55.0445 12.9559C52.3211 10.2226 49.0881 8.04991 45.5285 6.56094C41.8762 5.02695 37.998 4.25 34.0004 4.25H33.8676C29.8433 4.26992 25.9453 5.0668 22.2797 6.63398C18.7506 8.13823 15.5478 10.3147 12.85 13.0422C10.134 15.7848 8.00233 18.9723 6.52811 22.525C5.00077 26.2039 4.23045 30.1152 4.25038 34.1395C4.27291 38.7512 5.36396 43.2949 7.43788 47.4141V57.5078C7.43788 58.318 7.75971 59.0949 8.33257 59.6678C8.90544 60.2407 9.68241 60.5625 10.4926 60.5625H20.593C24.7121 62.6364 29.2558 63.7275 33.8676 63.75H34.007C37.9848 63.75 41.843 62.9797 45.4754 61.4723C49.017 60.001 52.238 57.8537 54.9582 55.1504C57.7008 52.4344 59.859 49.2602 61.3664 45.7207C62.9336 42.0551 63.7305 38.157 63.7504 34.1328C63.7703 30.0887 62.9867 26.1641 61.4394 22.4719V22.4719ZM51.4055 51.5578C46.7504 56.1664 40.5746 58.7031 34.0004 58.7031H33.8875C29.8832 58.6832 25.9055 57.6871 22.3926 55.8145L21.8348 55.5156H12.4848V46.1656L12.1859 45.6078C10.3133 42.0949 9.31717 38.1172 9.29725 34.1129C9.27069 27.4922 11.8008 21.2766 16.4426 16.5949C21.0777 11.9133 27.2734 9.32344 33.8941 9.29688H34.007C37.3273 9.29688 40.548 9.94102 43.5828 11.216C46.5445 12.4578 49.2008 14.2441 51.4851 16.5285C53.7629 18.8062 55.5558 21.4691 56.7976 24.4309C58.0859 27.4988 58.7301 30.7527 58.7168 34.1129C58.6769 40.727 56.0805 46.9227 51.4055 51.5578V51.5578Z" fill="white"/>
  </g>
</svg>
